IKResults																																											
version=1																																											
nRows=24																																											
nColumns=44																																											
inDegrees=yes																																											
																																											
Units are S.I. units (second, meters, Newtons, ...)																																											
Angles are in degrees.																																											
																																											
endheader																																											
time	ground_spine_rot_x	ground_spine_rot_y	ground_spine_rot_z	ground_spine_tx	ground_spine_ty	ground_spine_tz	clav_prot	clav_elev	scapula_abduction	scapula_elevation	scapula_upward_rot	scapula_winging	plane_elv	shoulder_elv	axial_rot	elbow_flexion	pro_sup	clav_prot_l	clav_elev_l	pitch2	roll2	yaw2	aux7jnt_r3	aux7jnt_r1	aux7jnt_r2	aux6jnt_r3	aux6jnt_r1	aux6jnt_r2	aux5jnt_r3	aux5jnt_r1	aux5jnt_r2	aux4jnt_r3	aux4jnt_r1	aux4jnt_r2	aux3jnt_r3	aux3jnt_r1	aux3jnt_r2	pitch1	roll1	yaw1	aux1jnt_r3	aux1jnt_r1	aux1jnt_r2
2	2.29693557	7.95829568	1.99254744	-0.75862439	1.09650717	-0.62744064	-40.10172505	11.30935055	30.38311578	-12.17683321	56.93448345	17.45185323	9.35164278	46.60087317	-15.69350088	0	34.32	30.42326055	-1.1607173	0.02532133	0.04096181	-0.04800998	0.27130079	0.3215303	-0.51714451	0.31917662	0.36846961	-0.60241798	0.31917662	0.50693836	-0.60241798	0.23938246	0.50693836	-0.60241798	0.15958831	0.46000039	-0.25857225	-0.20084027	-0.0113462	-0.0810405	-6.39805565	-0.32504461	-0.51540488
2.01	2.27182066	7.90710327	1.90994306	-0.7589146	1.09638602	-0.62735245	-39.67873069	11.44607173	29.42701936	-12.16576206	55.82257417	17.16767879	11.71931321	47.32303394	-14.93098279	0	34.32	30.42326055	-1.1607173	0.04689359	0.04666845	-0.0509855	0.50243295	0.36632471	-0.54919565	0.59109614	0.41980343	-0.63975413	0.59109614	0.57756313	-0.63975413	0.44332211	0.57756313	-0.63975413	0.29554807	0.52408594	-0.27459782	-0.22694457	-0.02167363	-0.08182555	-7.22964563	-0.62090379	-0.52039768
2.02	2.28065238	7.88396195	1.89023546	-0.75892108	1.09638003	-0.6273817	-40.0360796	11.3533845	30.38524652	-12.1525385	56.84764369	17.4041369	9.51167015	46.53387952	-16.38220991	0	34.32	30.42326055	-1.1607173	0.04694209	0.04352124	-0.04896187	0.50295257	0.34162063	-0.52739789	0.59170746	0.39149286	-0.61436207	0.59170746	0.53861361	-0.61436207	0.4437806	0.53861361	-0.61436207	0.29585373	0.4887428	-0.26369894	-0.22676973	-0.01765967	-0.08369966	-7.22407576	-0.50591232	-0.53231677
2.03	2.2875502	7.90012465	1.85631168	-0.75900928	1.09635227	-0.62751329	-40.06127202	11.40476383	30.00446081	-12.12311169	56.64752313	17.3908621	10.14294701	46.59040405	-16.85447969	0	34.32	30.42326055	-1.1607173	0.04817057	0.04347232	-0.04888427	0.51611488	0.3412366	-0.52656209	0.60719249	0.39105278	-0.61338846	0.60719249	0.53800815	-0.61338846	0.45539437	0.53800815	-0.61338846	0.30359624	0.4881934	-0.26328105	-0.2273904	-0.01767309	-0.08437272	-7.24384802	-0.50629663	-0.53659729
2.04	2.28263052	7.86740133	1.90550815	-0.75878374	1.0964578	-0.62753577	-39.91881313	11.47343512	30.09901924	-12.0870973	56.51593637	17.29879928	10.12816618	46.52953213	-16.66627433	0	34.32	30.42326055	-1.1607173	0.029516	0.040856	-0.04774495	0.31624388	0.32069979	-0.51428981	0.37205072	0.36751786	-0.59909256	0.37205072	0.50562894	-0.59909256	0.27903804	0.50562894	-0.59909256	0.18602536	0.45881221	-0.2571449	-0.20401612	-0.01110601	-0.08363771	-6.49922682	-0.31816379	-0.53192276
2.05	2.2769784	7.8803539	1.82363757	-0.75909655	1.09637934	-0.62760086	-39.91998312	11.41236232	29.91205782	-12.14173581	56.41577938	17.31286937	10.36435738	46.66828659	-16.35397627	0	34.32	30.42326055	-1.1607173	0.04762034	0.04787288	-0.0507033	0.51021961	0.3757789	-0.54615595	0.6002569	0.43063781	-0.63621321	0.6002569	0.592469	-0.63621321	0.45019267	0.592469	-0.63621321	0.30012845	0.53761166	-0.27307797	-0.2266282	-0.02395318	-0.08461696	-7.21956708	-0.68620795	-0.53815065
2.06	2.29979709	7.89294914	1.80858791	-0.75906161	1.09638853	-0.62780939	-39.85180984	11.56461125	29.06469945	-12.05945458	55.80840889	17.21383917	11.88838657	46.88335295	-19.09298038	0	34.32	30.42326055	-1.1607173	0.04802753	0.04305973	-0.04849731	0.5145823	0.337998	-0.52239383	0.60538946	0.38734138	-0.60853288	0.60538946	0.53290202	-0.60853288	0.4540421	0.53290202	-0.60853288	0.30269473	0.48356005	-0.26119691	-0.22737335	-0.01777336	-0.08675941	-7.24330506	-0.50916914	-0.55177629
2.07	2.32827162	7.88032842	1.78955964	-0.75909872	1.09642242	-0.6280049	-40.10178333	11.48605991	29.85617906	-12.05847041	56.59862457	17.38406058	9.98493453	46.32541007	-16.9154516	0	34.32	30.42326055	-1.1607173	0.04679474	0.04156848	-0.04838904	0.50137386	0.32629237	-0.52122768	0.58985015	0.37392688	-0.60717444	0.58985015	0.51444643	-0.60717444	0.44238761	0.51444643	-0.60717444	0.29492508	0.46681329	-0.26061384	-0.22541933	-0.01657376	-0.08712162	-7.18105674	-0.47480317	-0.55407991
2.08	2.32201982	7.83425268	1.81863538	-0.75903454	1.09647742	-0.62798322	-39.85432943	11.51516782	29.95980487	-12.06885013	56.34758298	17.24932935	10.13806456	46.36172474	-16.60433588	0	34.32	30.42326055	-1.1607173	0.02940667	0.03913045	-0.04743448	0.31507246	0.30715503	-0.51094551	0.37067258	0.35199574	-0.59519681	0.37067258	0.4842737	-0.59519681	0.27800443	0.4842737	-0.59519681	0.18533629	0.43943428	-0.25547275	-0.2040511	-0.00995076	-0.08597587	-6.50034101	-0.28506829	-0.54679311
2.09	2.31643745	7.86023826	1.75923718	-0.75922336	1.09643108	-0.62802517	-39.86358181	11.44887066	29.72777542	-12.12775403	56.23144688	17.26827302	10.27030787	46.39182736	-16.37582962	0	34.32	30.42326055	-1.1607173	0.04507609	0.04532168	-0.04987589	0.48295965	0.3557532	-0.5372434	0.56818643	0.40768861	-0.62583105	0.56818643	0.56089562	-0.62583105	0.42613982	0.56089562	-0.62583105	0.28409321	0.5089617	-0.2686217	-0.22473138	-0.02179115	-0.08676033	-7.15914104	-0.62427036	-0.55178211
2.1	2.36368513	7.83650558	1.71125942	-0.75947843	1.09639918	-0.62825245	-39.99353395	11.43970002	30.17385811	-12.09944654	56.65780227	17.34990785	9.28330484	46.02796854	-16.12629715	0	34.32	30.42326055	-1.1607173	0.0460445	0.03986393	-0.04826971	0.49333555	0.31291253	-0.51994222	0.58039335	0.35859375	-0.60567702	0.58039335	0.49335121	-0.60567702	0.43529501	0.49335121	-0.60567702	0.29019667	0.44767129	-0.25997111	-0.2262016	-0.01687022	-0.08682382	-7.20597721	-0.48329617	-0.55218595
2.11	2.37477807	7.79324424	1.70135724	-0.75949624	1.09643123	-0.62827187	-40.07804816	11.32668576	30.90046227	-12.14589289	57.20671871	17.4503451	7.78003805	45.59142134	-14.35981482	0	34.32	30.42326055	-1.1607173	0.04494977	0.03966112	-0.04552986	0.48160628	0.31132058	-0.49042973	0.56659423	0.3567694	-0.57129812	0.56659423	0.49084127	-0.57129812	0.42494568	0.49084127	-0.57129812	0.28329712	0.44539375	-0.24521486	-0.22578544	-0.01711676	-0.08885135	-7.19271987	-0.49035894	-0.56508067
2.12	2.37616161	7.73335488	1.73981494	-0.75934105	1.0965146	-0.62823218	-39.90991312	11.35070445	30.92490199	-12.15326467	57.00994044	17.35403054	7.81156625	45.5027411	-14.31773235	0	34.32	30.42326055	-1.1607173	0.02679394	0.03656612	-0.04395012	0.28707883	0.28702628	-0.47341331	0.33773897	0.32892845	-0.55147582	0.33773897	0.45253785	-0.55147582	0.25330423	0.45253785	-0.55147582	0.16886949	0.41063689	-0.23670666	-0.20337496	-0.01046855	-0.0873887	-6.47880171	-0.29990189	-0.55577845
2.13	2.33972949	7.71830837	1.68751277	-0.75954896	1.09645111	-0.6280673	-39.82677604	11.38379302	30.51814257	-12.15622397	56.66219499	17.28835828	8.32545099	45.53769975	-14.11596334	0	34.32	30.42326055	-1.1607173	0.0402357	0.04565521	-0.0457203	0.4310982	0.35837121	-0.49248099	0.50717311	0.41068882	-0.57368763	0.50717311	0.5650233	-0.57368763	0.38037983	0.5650233	-0.57368763	0.25358655	0.51270719	-0.2462405	-0.22140787	-0.02267061	-0.08634368	-7.0532661	-0.64946515	-0.54913231
2.14	2.39095799	7.69553712	1.65755351	-0.75969	1.09649534	-0.62830516	-40.00777687	11.30789021	31.00590501	-12.16764022	57.18492559	17.42171551	7.00822369	44.92315138	-13.66812103	0	34.32	30.42326055	-1.1607173	0.04220895	0.03826239	-0.04526133	0.45224016	0.30034121	-0.48753719	0.53204594	0.34418718	-0.56792863	0.53204594	0.47353073	-0.56792863	0.39903446	0.47353073	-0.56792863	0.26602297	0.42968601	-0.24376859	-0.22520113	-0.01656649	-0.08695007	-7.17410592	-0.47459505	-0.55298885
2.15	2.38712024	7.64408739	1.65544069	-0.75969121	1.09650635	-0.62825298	-39.92116062	11.33360326	30.90268196	-12.16577289	57.01327209	17.36452652	6.99151753	44.68744195	-13.6121463	0	34.32	30.42326055	-1.1607173	0.0410346	0.0379794	-0.04476848	0.43965786	0.29811991	-0.48222843	0.51724328	0.3416416	-0.56174449	0.51724328	0.47002853	-0.56174449	0.38793246	0.47002853	-0.56174449	0.25862164	0.42650808	-0.24111421	-0.22503337	-0.01579188	-0.0863224	-7.16876162	-0.45240395	-0.548997
2.16	2.37204772	7.63421858	1.64371254	-0.75979495	1.09652448	-0.62820178	-39.85221486	11.35732483	30.28084924	-12.18193305	56.55728779	17.30339935	7.7791422	44.49389131	-14.97718624	0	34.32	30.42326055	-1.1607173	0.04018154	0.03991927	-0.04351743	0.43051789	0.31334692	-0.46875261	0.5064904	0.35909156	-0.5460466	0.5064904	0.49403608	-0.5460466	0.3798678	0.49403608	-0.5460466	0.2532452	0.44829275	-0.2343763	-0.22491666	-0.01784441	-0.0880128	-7.16504369	-0.51120477	-0.55974768
2.17	2.35668675	7.5696781	1.65364672	-0.7597788	1.09657693	-0.62804137	-39.95011342	11.17074262	31.23353385	-12.2751363	57.26835723	17.43986448	5.33259383	43.76194481	-12.1638258	0	34.32	30.42326055	-1.1607173	0.0386833	0.03974385	-0.04387598	0.41446526	0.31196993	-0.47261471	0.48760499	0.35751354	-0.55054553	0.48760499	0.49186506	-0.55054553	0.36570374	0.49186506	-0.55054553	0.24380249	0.44632275	-0.23630735	-0.22504857	-0.01720516	-0.08707837	-7.1692456	-0.49289141	-0.55380484
2.18	2.29070464	7.50440182	1.72698387	-0.75946803	1.09666428	-0.62764725	-39.70351266	11.16919653	31.0091159	-12.32539538	56.83164419	17.30116358	5.42718825	43.42493986	-12.05256563	0	34.32	30.42326055	-1.1607173	0.01931822	0.04217446	-0.04333108	0.20698165	0.33104909	-0.46674524	0.24350722	0.37937802	-0.54370823	0.24350722	0.52194608	-0.54370823	0.18263042	0.52194608	-0.54370823	0.12175361	0.47361853	-0.23337262	-0.20179034	-0.01506825	-0.08559298	-6.42832134	-0.43167343	-0.54435798
2.19	2.29509332	7.5217814	1.66832536	-0.75976966	1.09659489	-0.62773725	-39.77509837	11.08324269	30.66903364	-12.39492098	56.73055416	17.355949	5.24019368	43.00141817	-12.37092324	0	34.32	30.42326055	-1.1607173	0.03665839	0.04200299	-0.0458772	0.39276974	0.32970313	-0.49417104	0.46208091	0.37783556	-0.57565635	0.46208091	0.51982398	-0.57565635	0.34656068	0.51982398	-0.57565635	0.23104046	0.47169292	-0.24708552	-0.22553319	-0.01802641	-0.08524738	-7.1846841	-0.51641867	-0.54216
2.2	2.26967196	7.50347063	1.6673899	-0.75981303	1.09659312	-0.62765104	-39.61413168	11.06731993	30.27122995	-12.44607096	56.29584807	17.26587672	5.37762231	42.65700513	-12.00049257	0	34.32	30.42326055	-1.1607173	0.03614867	0.0420329	-0.04605397	0.38730842	0.3299379	-0.49607517	0.45565585	0.37810461	-0.57787446	0.45565585	0.52019413	-0.57787446	0.34174189	0.52019413	-0.57787446	0.22782793	0.4720288	-0.24803758	-0.22596192	-0.01692364	-0.0852847	-7.19834185	-0.48482668	-0.54239736
2.21	2.35365864	7.61740929	1.67632773	-0.75982275	1.09654871	-0.62828875	-39.87400989	10.98752907	30.58799535	-12.45767786	56.81793821	17.43579585	3.29358497	41.76803341	-9.91894103	0	34.32	30.42326055	-1.1607173	0.03490903	0.03686187	-0.04548833	0.37402655	0.28934782	-0.48998236	0.44003015	0.3315889	-0.57077699	0.44003015	0.45619809	-0.57077699	0.33002262	0.45619809	-0.57077699	0.22001508	0.41395822	-0.24499118	-0.22611634	-0.0139586	-0.0878794	-7.20326112	-0.39988436	-0.55889927
2.22	2.28991249	7.69598081	1.81492679	-0.7591557	1.09689776	-0.62835815	-39.60830352	10.86840604	29.97425197	-12.61363406	56.13696896	17.31692559	3.41975431	41.38496843	-9.78153792	0	34.32	30.42326055	-1.1607173	0.01403502	0.03799759	-0.04552356	0.1503757	0.29826263	-0.49036178	0.17691216	0.34180515	-0.57121897	0.17691216	0.47025355	-0.57121897	0.13268412	0.47025355	-0.57121897	0.08845608	0.42671227	-0.24518089	-0.20280162	-0.00820028	-0.08792102	-6.46053731	-0.23492082	-0.55916393
2.23	2.24776958	7.69878621	1.74319865	-0.75956816	1.09672669	-0.6281535	-39.49716167	10.76250881	29.03695084	-12.74107509	55.44661032	17.27431013	4.3174642	41.00878318	-10.66209089	0	34.32	30.42326055	-1.1607173	0.03160796	0.04239341	-0.0479738	0.33865779	0.33276768	-0.51675481	0.39841996	0.3813475	-0.60196402	0.39841996	0.52465568	-0.60196402	0.29881497	0.52465568	-0.60196402	0.19920998	0.47607725	-0.2583774	-0.22523783	-0.01584911	-0.08811749	-7.17527474	-0.45404347	-0.56041344
